<svg xmlns="http://www.w3.org/2000/svg" viewBox="0 0 48 85" x="0px" y="0px">
    <path fill="#000000" d="M474,1436.00644 C474,1440.42563 470.423657,1444 465.994677,1444 L434.005323,1444 C429.586846,1444 426,1440.41852 426,1436.0078 L426,1383.9922 C426,1379.57366 429.576445,1376 434.005323,1376 L465.994677,1376 C470.411991,1376 474,1379.58523 474,1383.99356 L474,1436.00644 Z M453.774852,1440 L465.994677,1440 C468.215012,1440 470,1438.216 470,1436.00644 L470,1423.14874 L461.118832,1417.96806 L453.774852,1440 Z M456.786731,1418.31525 L443.788167,1423.1042 L450.629516,1436.7869 L456.786731,1418.31525 Z M439.494309,1423.46075 L430,1418.34843 L430,1436.0078 C430,1438.20804 431.794645,1440 434.005323,1440 L447.763932,1440 L439.494309,1423.46075 Z M450.178681,1395.78834 L430,1404.32548 L430,1413.80541 L440.030771,1419.2066 L450.178681,1395.78834 Z M456.458857,1393.50238 L461.725488,1413.69113 L470,1418.51793 L470,1390.49323 L456.458857,1393.50238 Z M453.528881,1398.11729 L444.692884,1418.50805 L457.607033,1413.7502 L453.528881,1398.11729 Z M470,1386.39566 L470,1383.99356 C470,1381.79506 468.203546,1380 465.994677,1380 L450.236068,1380 L455.090507,1389.70888 L470,1386.39566 Z M451.258128,1390.98839 L445.763932,1380 L434.005323,1380 C431.784886,1380 430,1381.7835 430,1383.9922 L430,1399.98222 L451.258128,1390.98839 Z" transform="translate(-426 -1376)"/>
</svg>